<?xml version="1.0" standalone="no"?>
<!DOCTYPE svg PUBLIC "-//W3C//DTD SVG 20010904//EN"
 "http://www.w3.org/TR/2001/REC-SVG-20010904/DTD/svg10.dtd">
<svg version="1.0" xmlns="http://www.w3.org/2000/svg"
 width="300.000000pt" height="260.000000pt" viewBox="0 0 300.000000 260.000000"
 preserveAspectRatio="xMidYMid meet">
<metadata>
Created by potrace 1.10, written by Peter Selinger 2001-2011
</metadata>
<g transform="translate(0.000000,260.000000) scale(0.100000,-0.100000)"
fill="#000000" stroke="none">
<path d="M1455 2514 c-27 -8 -57 -17 -65 -19 -8 -2 -15 -4 -15 -5 0 -1 -10 -3
-21 -4 -33 -4 -143 -82 -197 -139 -58 -62 -99 -133 -121 -204 -8 -29 -13 -53
-11 -53 3 0 0 -12 -6 -27 -21 -54 -6 -250 21 -288 4 -5 13 -27 19 -47 7 -21
17 -38 22 -38 5 0 8 -3 7 -7 -4 -17 14 -138 24 -158 6 -11 20 -31 32 -44 11
-13 16 -21 10 -18 -7 4 -20 -5 -30 -21 -26 -40 -170 -182 -178 -175 -3 3 -6 1
-6 -5 0 -6 -24 -24 -52 -38 -29 -14 -60 -33 -69 -40 -16 -14 -49 -10 -49 6 0
5 -6 15 -12 22 -7 7 -32 34 -55 60 -23 25 -45 43 -48 40 -16 -16 10 54 27 72
49 53 47 156 -4 225 -17 23 -32 40 -35 37 -3 -2 -13 4 -24 15 -17 17 -18 25
-9 65 12 52 5 108 -16 125 -8 6 -12 15 -9 19 3 4 -9 22 -27 39 -28 28 -47 36
-70 32 -5 0 -8 4 -8 9 0 6 -23 10 -51 10 -110 0 -189 -74 -194 -183 -2 -29 -3
-55 -4 -59 -1 -4 -10 -9 -20 -13 -34 -10 -111 -92 -111 -117 0 -13 -12 -43
-26 -68 -45 -78 -25 -164 66 -282 54 -70 93 -93 194 -111 90 -16 110 -28 102
-59 -2 -10 -1 -18 4 -18 4 0 5 -11 3 -25 -3 -13 1 -48 7 -77 13 -54 43 -91 91
-116 14 -8 37 -24 52 -36 14 -12 49 -33 79 -46 29 -14 57 -29 61 -35 11 -15 0
-148 -21 -246 -25 -116 -23 -140 10 -158 25 -15 28 -14 41 3 21 28 64 222 70
313 0 7 13 15 28 18 34 8 79 42 79 60 0 7 6 15 14 18 14 6 36 -31 36 -62 0 -9
9 -51 20 -93 11 -42 22 -91 25 -110 36 -252 39 -269 56 -296 16 -25 51 -29 68
-8 8 9 10 36 7 75 -2 33 0 63 5 66 5 4 9 -2 9 -12 0 -23 32 -121 48 -151 9
-15 22 -22 42 -22 39 0 47 32 27 97 -17 52 -29 99 -32 123 -1 8 -9 43 -18 78
-10 35 -17 75 -17 88 0 14 -3 23 -7 21 -5 -3 -9 6 -10 20 0 14 -7 29 -15 34
-8 6 -9 9 -1 9 8 0 9 8 2 28 -17 52 -51 167 -55 191 -3 13 -9 32 -14 42 -6 10
-10 27 -10 38 0 12 -4 29 -9 39 -5 9 -24 55 -41 102 -17 47 -36 93 -41 103 -5
10 -7 22 -4 27 3 4 1 10 -5 12 -5 1 -6 9 -1 16 4 7 14 10 22 7 16 -7 89 -108
89 -124 0 -6 4 -11 8 -11 4 0 15 -15 23 -32 8 -18 34 -69 56 -113 42 -81 71
-145 91 -200 16 -43 30 -225 32 -405 1 -96 6 -164 13 -180 16 -32 53 -39 62
-11 3 12 11 21 16 21 12 0 4 375 -11 500 -12 94 -21 130 -56 207 -13 28 -28
63 -34 77 -5 14 -14 26 -20 26 -5 0 -10 5 -10 11 0 14 -71 159 -85 175 -25 28
-41 51 -54 76 -8 15 -17 25 -21 23 -4 -2 -12 7 -19 21 -10 22 -8 30 14 58 13
18 37 44 52 57 16 14 37 37 47 52 25 33 33 28 41 -26 8 -50 20 -79 134 -305
47 -95 97 -187 112 -204 22 -28 27 -30 48 -19 14 8 41 51 72 116 27 57 49 107
49 111 0 4 13 35 29 68 33 69 56 135 66 186 4 19 14 56 22 83 l15 47 42 -36
c70 -61 80 -69 109 -87 l28 -18 -31 -52 c-17 -29 -41 -73 -52 -99 -11 -27 -25
-48 -30 -48 -5 0 -7 -4 -4 -9 3 -4 -5 -22 -17 -38 -13 -17 -34 -55 -47 -84
-14 -30 -29 -57 -35 -61 -5 -4 -7 -8 -2 -8 4 0 -4 -18 -18 -40 -14 -22 -25
-42 -25 -45 0 -3 -14 -35 -30 -70 -51 -110 -57 -148 -56 -411 1 -253 5 -274
47 -274 36 0 42 36 45 281 l3 237 42 98 c47 113 158 333 177 352 6 7 12 18 12
24 0 6 11 25 24 42 13 18 25 40 27 50 2 11 11 21 19 23 13 4 13 3 0 -6 -8 -5
-12 -13 -8 -16 4 -4 0 -30 -9 -58 -8 -28 -16 -58 -18 -67 -6 -30 -46 -164 -65
-215 -10 -27 -32 -117 -50 -200 -30 -142 -49 -227 -53 -250 -2 -5 -5 -14 -8
-20 -4 -5 -17 -57 -29 -114 -25 -110 -22 -133 18 -139 15 -2 27 6 42 30 11 18
18 39 15 45 -2 7 1 12 7 10 7 -1 12 3 13 10 0 6 4 15 9 20 5 5 6 -5 3 -23 -10
-53 41 -84 75 -45 14 16 30 76 33 121 1 8 4 22 8 30 5 13 12 58 21 145 6 54
36 209 48 253 l13 43 50 -33 c62 -40 65 -45 65 -88 0 -19 1 -48 3 -65 6 -46
46 -173 57 -180 6 -3 10 -13 10 -21 0 -15 39 -64 52 -64 4 0 17 9 28 20 22 22
20 50 -8 105 -23 45 -51 162 -45 188 3 12 20 36 38 52 18 17 45 50 60 75 30
48 52 69 73 70 40 1 146 157 144 212 0 15 -10 40 -22 55 -19 25 -20 29 -5 39
8 6 34 14 57 18 22 4 55 17 72 29 34 24 105 98 106 110 0 4 12 25 26 47 33 50
40 151 14 190 -10 14 -21 41 -25 60 -4 19 -14 47 -21 62 -14 27 -61 68 -77 68
-16 -1 -39 32 -43 63 -8 54 -44 115 -87 144 -34 23 -51 28 -103 28 -53 0 -69
-4 -106 -30 -58 -41 -82 -92 -83 -177 0 -65 -1 -68 -35 -90 -53 -35 -82 -100
-78 -171 3 -40 11 -66 26 -85 57 -71 56 -66 21 -115 -31 -44 -33 -45 -58 -32
-31 17 -99 75 -88 75 5 0 2 7 -5 15 -7 8 -26 32 -43 54 -16 22 -34 40 -40 41
-19 1 -85 66 -85 83 0 23 37 101 73 155 30 45 66 128 73 172 3 14 9 42 15 63
12 45 9 147 -3 147 -5 0 -7 4 -4 9 8 13 -21 115 -50 176 -55 117 -214 246
-342 280 -87 22 -208 26 -267 9z m228 -29 c146 -31 293 -146 356 -280 88 -186
74 -363 -41 -541 -24 -38 -48 -82 -52 -98 -4 -15 -18 -38 -31 -50 l-24 -23 90
-69 c67 -51 98 -82 118 -119 26 -47 118 -125 147 -125 6 0 35 32 64 71 l52 72
-37 30 c-65 53 -83 133 -45 206 21 41 74 81 108 81 20 0 20 0 0 38 -36 69 -13
155 56 206 39 30 143 30 183 0 43 -32 68 -82 69 -139 0 -47 2 -50 27 -53 60
-7 141 -124 122 -175 -4 -10 2 -17 19 -21 28 -7 35 -33 14 -54 -8 -8 -8 -15 1
-26 14 -17 2 -46 -58 -131 -67 -97 -118 -127 -248 -141 l-61 -6 48 -42 c27
-22 52 -49 55 -59 10 -27 -52 -143 -94 -178 -20 -16 -46 -29 -58 -29 -13 0
-23 -4 -23 -8 0 -4 -18 -36 -40 -70 -42 -64 -71 -88 -97 -78 -35 14 3 -185 56
-295 16 -33 18 -45 9 -51 -7 -4 -16 -8 -19 -8 -3 0 -23 46 -44 102 -32 83 -40
119 -43 190 l-4 87 -59 36 c-32 19 -67 47 -78 61 -23 30 -20 35 -50 -81 -23
-93 -38 -175 -46 -260 -11 -120 -48 -294 -64 -300 -27 -10 -28 16 -5 112 13
52 26 123 29 157 10 97 33 225 54 301 11 39 23 95 26 125 8 63 45 188 83 273
24 56 25 58 6 72 -10 8 -21 15 -24 15 -3 0 -16 -44 -29 -97 -13 -54 -43 -159
-66 -233 -23 -74 -50 -173 -60 -220 -10 -47 -40 -173 -67 -280 -28 -107 -52
-205 -55 -217 -6 -25 -30 -49 -40 -40 -3 4 0 26 6 49 37 138 100 398 105 430
11 69 25 125 74 279 72 229 98 337 86 357 -11 18 -54 30 -54 15 0 -4 -36 -75
-81 -158 -121 -224 -166 -315 -199 -405 l-30 -81 0 -249 c0 -237 -1 -248 -19
-253 -11 -3 -21 -3 -23 -2 -2 2 0 52 5 112 4 59 6 170 2 246 -8 192 -5 199
223 632 49 94 102 183 116 199 14 16 26 30 26 32 0 2 -43 36 -96 75 -53 40
-112 94 -132 120 -20 27 -40 49 -45 49 -4 0 -5 -4 -2 -10 13 -21 6 -111 -15
-196 -13 -49 -52 -154 -87 -234 -36 -80 -76 -170 -89 -200 -22 -52 -44 -77
-44 -48 0 7 -50 112 -110 233 -150 300 -167 380 -93 457 14 14 22 31 19 37 -7
11 -69 -60 -125 -144 -19 -27 -64 -81 -102 -120 l-68 -70 69 -92 c67 -89 200
-336 233 -433 8 -25 20 -79 26 -120 12 -91 26 -492 18 -514 -4 -9 -13 -13 -20
-10 -11 4 -15 55 -20 257 -4 162 -11 275 -21 318 -20 91 -162 372 -243 481
l-65 88 -34 -28 c-19 -15 -34 -32 -34 -38 0 -6 16 -45 34 -86 56 -120 109
-292 211 -688 23 -91 51 -192 61 -223 18 -59 14 -78 -13 -61 -10 6 -34 82 -68
219 -84 339 -174 643 -219 734 -25 54 -70 91 -88 73 -8 -8 -5 -14 14 -21 37
-14 52 -43 91 -181 65 -232 165 -800 140 -800 -20 0 -29 31 -47 165 -10 66
-30 179 -46 251 -16 72 -32 155 -35 185 -4 29 -8 56 -10 58 -2 2 -17 -12 -32
-30 -83 -100 -100 -114 -125 -102 l-24 11 -12 -92 c-6 -50 -21 -127 -32 -170
-11 -44 -20 -87 -20 -98 0 -21 -13 -24 -29 -5 -8 10 -5 38 13 109 14 52 29
136 35 186 l10 92 -35 37 c-24 25 -43 37 -57 35 -19 -2 -80 35 -180 110 -22
17 -40 114 -35 193 l4 60 -71 1 c-128 3 -194 36 -263 132 -58 80 -74 119 -58
134 11 12 11 17 0 33 -19 26 -17 43 6 50 13 4 20 15 20 31 0 30 22 81 49 112
16 18 89 58 99 53 1 0 8 -1 16 -1 12 0 12 5 -1 31 -19 38 -12 102 15 138 71
97 203 96 276 -2 30 -41 29 -130 -2 -174 -20 -28 -21 -33 -7 -33 60 0 135 -87
135 -156 -1 -43 -33 -107 -70 -136 l-32 -25 44 -36 c25 -20 66 -66 92 -101 26
-35 54 -67 63 -70 11 -4 29 5 52 27 20 18 55 42 78 52 28 12 84 60 163 140 66
68 120 128 120 133 0 5 -9 12 -19 15 -28 7 -52 62 -58 131 -3 34 -14 76 -24
94 -85 149 -76 381 20 530 126 196 339 285 564 237z"/>
<path d="M1505 2459 c-175 -29 -306 -124 -380 -274 -40 -81 -59 -184 -50 -265
6 -54 42 -180 51 -180 3 0 20 12 39 27 l35 28 -41 41 -40 41 50 55 c28 31 69
63 90 71 34 14 40 21 46 57 4 23 29 74 58 118 27 42 58 99 68 126 20 54 67
109 113 133 37 19 140 14 162 -9 15 -14 14 -18 -5 -37 -12 -12 -21 -27 -21
-34 0 -8 18 -70 41 -138 25 -79 38 -134 35 -152 -5 -23 -1 -30 22 -39 15 -7
45 -26 67 -43 22 -17 70 -44 108 -60 37 -15 67 -29 67 -31 0 -15 -29 -65 -53
-91 -25 -26 -28 -35 -18 -47 7 -8 16 -27 20 -43 8 -28 8 -28 33 22 47 91 61
159 56 262 -5 82 -10 101 -46 178 -53 110 -130 190 -231 239 -108 53 -171 63
-276 45z m-64 -73 c-11 -11 -25 -40 -33 -63 -7 -24 -16 -43 -20 -43 -5 0 -8
-4 -8 -9 0 -8 -54 -96 -78 -126 -4 -5 -14 -29 -21 -53 -10 -29 -25 -49 -48
-63 -18 -11 -33 -25 -33 -30 0 -5 -5 -9 -12 -9 -7 0 -25 -14 -40 -32 -15 -18
-30 -30 -32 -27 -13 12 -7 127 8 169 9 25 18 50 19 55 4 18 61 102 97 141 33
36 88 79 100 77 3 -1 14 4 25 10 11 6 23 10 28 9 4 -1 7 2 7 7 0 10 40 20 53
13 5 -2 0 -14 -12 -26z m349 -6 c3 -3 21 -17 40 -30 78 -52 140 -136 177 -235
14 -40 26 -151 18 -166 -7 -11 -127 30 -150 51 -12 11 -25 20 -29 20 -13 0
-56 49 -56 63 0 12 -55 196 -71 235 -13 34 8 71 40 69 14 -1 28 -4 31 -7z"/>
<path d="M1525 2379 c-31 -29 -51 -59 -66 -101 -12 -32 -37 -79 -56 -104 -37
-47 -78 -132 -69 -141 2 -3 15 2 28 11 31 22 38 20 38 -8 0 -18 -7 -25 -29
-29 -46 -10 -134 -55 -171 -89 l-34 -31 74 5 c50 3 90 12 118 27 53 27 173 30
239 7 23 -8 88 -24 145 -35 92 -19 109 -20 153 -8 l50 14 -38 12 c-21 7 -50
23 -65 35 -15 12 -60 41 -99 64 -40 24 -73 47 -73 52 0 16 21 22 36 9 8 -6 16
-10 19 -8 2 3 -14 61 -35 129 -39 124 -49 193 -30 205 21 13 -2 25 -46 25 -38
0 -51 -6 -89 -41z m97 -51 c5 -24 11 -52 13 -63 2 -11 13 -46 24 -78 21 -59
19 -79 -7 -109 -13 -15 -12 -20 9 -47 13 -17 32 -33 42 -36 9 -4 17 -11 17
-16 0 -6 5 -7 11 -3 6 3 14 3 18 -2 3 -5 20 -18 36 -29 l30 -19 -25 -6 c-14
-4 -27 -4 -30 0 -3 3 -30 11 -60 17 -30 6 -73 16 -95 21 -62 15 -166 22 -184
12 -13 -6 -17 -4 -18 11 -1 10 2 19 8 19 14 0 10 53 -6 74 -13 18 -13 23 7 55
11 20 38 68 58 106 46 89 70 125 82 125 5 0 16 7 25 16 21 20 33 7 45 -48z"/>
<path d="M1475 1904 c11 -3 30 -15 43 -27 19 -18 22 -31 22 -94 0 -59 3 -73
15 -73 13 0 15 10 9 63 -3 37 -1 73 5 91 7 16 9 31 6 34 -3 3 -31 7 -63 8 -31
2 -48 1 -37 -2z"/>
<path d="M374 1890 c-11 -4 -33 -22 -47 -40 -21 -25 -27 -42 -27 -80 0 -43 5
-54 35 -84 42 -43 88 -53 138 -32 47 19 77 68 77 125 0 37 -6 49 -39 82 -32
32 -45 39 -77 38 -22 0 -48 -4 -60 -9z m84 -28 c28 -5 61 -57 62 -94 0 -31 -6
-42 -34 -63 -51 -39 -76 -40 -119 -4 -30 25 -37 37 -37 65 0 20 5 44 11 56 11
21 90 61 99 50 3 -4 11 -8 18 -10z"/>
<path d="M1612 1876 c-18 -23 -22 -50 -16 -98 6 -41 9 -47 17 -32 5 11 12 21
14 23 6 8 93 -82 93 -96 0 -7 4 -13 10 -13 14 0 22 56 18 129 l-3 64 -62 17
c-45 12 -65 14 -71 6z m92 -29 c26 -19 18 -61 -13 -65 -15 -3 -30 3 -37 13 -7
9 -17 14 -23 11 -22 -14 -22 18 0 35 29 22 49 24 73 6z"/>
<path d="M1389 1852 l-31 -28 7 -83 7 -83 51 51 c54 55 67 61 67 32 0 -11 5
-23 10 -26 6 -4 10 18 10 59 0 53 -4 70 -20 86 -28 28 -64 25 -101 -8z m85
-18 c21 -20 20 -27 -4 -49 -19 -17 -21 -17 -38 -2 -13 12 -21 14 -29 6 -12
-12 -33 -4 -33 12 0 11 59 49 77 49 6 0 19 -7 27 -16z"/>
<path d="M2469 1857 c-43 -29 -59 -60 -59 -116 0 -37 5 -49 39 -82 33 -34 45
-39 83 -39 132 0 175 180 58 242 -46 24 -80 23 -121 -5z m120 -35 c26 -22 34
-36 36 -68 8 -109 -128 -139 -181 -41 -28 51 30 134 96 136 9 1 31 -12 49 -27z"/>
<path d="M1283 1832 c-18 -22 -53 -55 -78 -73 -40 -29 -66 -71 -53 -85 9 -8
106 77 138 122 43 60 37 91 -7 36z"/>
<path d="M1918 1856 c-27 -5 -48 -12 -48 -16 0 -4 9 -15 20 -25 20 -18 21 -18
52 13 18 17 30 33 27 35 -2 1 -25 -2 -51 -7z"/>
<path d="M1198 1838 c17 -18 26 -20 39 -12 33 21 26 34 -18 34 l-43 0 22 -22z"/>
<path d="M1790 1840 c0 -11 71 -100 95 -120 10 -8 26 -28 37 -45 l18 -30 0 36
c0 29 -10 46 -55 96 -49 54 -95 85 -95 63z"/>
<path d="M1310 1780 c0 -16 -78 -97 -116 -121 -29 -18 -34 -26 -34 -58 0 -24
8 -49 21 -65 24 -30 56 -37 43 -8 -4 9 -9 33 -11 53 -4 31 1 42 46 91 44 48
78 118 57 118 -3 0 -6 -5 -6 -10z"/>
<path d="M1784 1745 c4 -21 19 -52 32 -68 42 -49 56 -86 49 -123 -7 -38 3 -43
28 -16 10 11 17 35 17 60 0 34 -8 50 -48 99 -27 32 -57 65 -67 73 -17 14 -18
13 -11 -25z"/>
<path d="M1630 1707 c0 -8 11 -19 25 -25 30 -14 33 -3 5 21 -24 21 -30 21 -30
4z"/>
<path d="M1288 1652 c-44 -52 -61 -92 -39 -92 5 0 28 22 51 50 29 35 40 57 38
74 -3 24 -6 21 -50 -32z"/>
<path d="M1420 1665 c-24 -25 -40 -45 -35 -45 17 1 98 77 88 83 -5 4 -29 -14
-53 -38z"/>
<path d="M1456 1635 c-52 -43 -68 -65 -47 -65 4 0 20 9 34 20 14 11 42 27 62
36 24 10 35 20 33 31 -6 30 -25 24 -82 -22z"/>
<path d="M1572 1659 c2 -20 15 -28 68 -46 36 -12 73 -22 84 -23 36 0 -6 40
-64 61 -96 35 -92 34 -88 8z"/>
<path d="M1766 1662 c-3 -5 6 -24 20 -43 14 -19 29 -41 34 -49 16 -27 21 -3 7
31 -16 39 -52 75 -61 61z"/>
<path d="M2650 1635 c-13 -14 -39 -30 -57 -37 -28 -10 -33 -16 -27 -33 3 -11
9 -41 11 -67 6 -63 26 -80 48 -39 16 31 54 49 76 36 7 -5 9 -22 6 -46 -3 -22
-2 -39 1 -39 4 0 28 18 55 41 39 34 47 46 47 75 0 43 -21 86 -56 113 -36 28
-75 27 -104 -4z m95 -29 c38 -36 49 -82 24 -107 -23 -23 -39 -25 -39 -3 0 8
-4 13 -9 10 -5 -3 -12 1 -15 10 -6 16 -29 16 -68 0 -11 -5 -20 -1 -28 15 -11
19 -9 25 16 49 60 56 82 60 119 26z"/>
<path d="M204 1631 c-34 -21 -54 -65 -53 -115 0 -25 10 -39 56 -75 l55 -44 -7
31 c-19 86 46 97 94 16 10 -18 12 -18 31 6 24 31 26 99 5 140 -30 58 -120 78
-181 41z m135 -35 c11 -12 23 -41 27 -65 l7 -43 -29 15 c-52 26 -82 29 -96 9
-30 -42 -68 -34 -68 16 0 33 39 90 65 94 38 6 73 -4 94 -26z"/>
<path d="M480 1613 c-37 -14 -50 -35 -44 -72 4 -24 0 -51 -10 -76 -15 -36 -15
-39 1 -58 60 -65 151 -60 202 12 23 32 28 95 10 133 -23 51 -103 81 -159 61z
m113 -55 c20 -21 27 -38 27 -65 0 -43 -5 -52 -40 -76 -51 -35 -133 -10 -123
38 2 11 6 40 8 64 2 27 10 50 20 57 28 21 77 12 108 -18z"/>
<path d="M1528 1603 c-28 -7 -21 -23 10 -23 37 0 60 15 37 24 -18 6 -20 6 -47
-1z"/>
<path d="M2354 1591 c-33 -20 -64 -75 -64 -113 0 -33 34 -85 71 -107 22 -14
42 -17 72 -14 81 11 125 66 114 144 -6 47 -28 75 -76 95 -45 19 -80 18 -117
-5z m116 -32 c19 -12 38 -27 42 -33 13 -20 8 -70 -10 -92 -52 -65 -137 -56
-167 18 -15 38 -15 41 6 75 34 55 74 65 129 32z"/>
<path d="M1616 1571 c-4 -6 -2 -28 3 -48 6 -21 18 -71 27 -110 15 -66 19 -73
40 -73 16 0 28 8 36 24 9 22 7 28 -19 50 -19 16 -33 41 -42 78 -16 60 -35 95
-45 79z"/>
<path d="M1444 1493 c-10 -46 -27 -92 -41 -111 -16 -21 -22 -37 -16 -43 15
-15 39 -1 57 34 17 34 47 177 39 190 -12 20 -23 0 -39 -70z"/>
<path d="M1348 1536 c-9 -13 -20 -36 -24 -51 -10 -41 16 -28 40 19 21 43 10
66 -16 32z"/>
<path d="M1516 1552 c-3 -5 -8 -35 -11 -68 -8 -81 -22 -129 -41 -145 -14 -12
-14 -14 1 -25 13 -10 23 -10 41 -2 23 11 24 14 24 130 0 112 -2 129 -14 110z"/>
<path d="M1566 1552 c-11 -18 -5 -214 7 -229 13 -18 46 -16 53 2 3 8 -1 36
-10 62 -9 25 -16 58 -17 72 -1 44 -24 108 -33 93z"/>
<path d="M1670 1560 c-1 -14 43 -116 53 -122 43 -28 34 29 -13 82 -21 25 -39
43 -40 40z"/>
<path d="M1400 1505 c-7 -22 -25 -51 -40 -65 -23 -21 -26 -30 -18 -50 l9 -25
20 25 c21 28 53 124 46 143 -2 6 -10 -6 -17 -28z"/>
<path d="M110 1461 c0 -5 37 -52 82 -105 61 -73 78 -100 70 -108 -9 -9 -15 -8
-24 4 -83 104 -112 138 -121 138 -22 0 93 -152 135 -178 18 -11 68 -25 110
-32 80 -12 100 -8 140 27 22 20 41 8 28 -16 -7 -14 -5 -23 9 -35 9 -9 20 -16
23 -16 4 0 9 34 13 76 10 99 3 106 -96 106 -72 -1 -75 1 -111 36 -21 20 -38
41 -38 47 0 5 -11 24 -25 40 l-25 30 6 -40 c4 -22 15 -57 25 -77 34 -67 19
-91 -23 -39 -24 30 -162 151 -172 151 -3 0 -6 -4 -6 -9z m275 -155 c11 -7 39
-13 63 -14 88 -1 91 -2 97 -23 8 -24 -9 -41 -32 -32 -8 3 -21 -1 -31 -10 -23
-20 -129 -25 -162 -8 -39 22 -41 34 -9 53 16 10 32 25 35 33 7 19 14 19 39 1z"/>
<path d="M2762 1407 c-40 -34 -79 -72 -88 -84 -16 -24 -44 -31 -44 -13 0 6 7
24 15 39 19 38 35 111 24 111 -5 0 -17 -17 -28 -37 -11 -21 -34 -52 -53 -70
-31 -29 -38 -31 -106 -31 -88 -1 -103 -10 -92 -55 5 -18 12 -47 17 -65 9 -38
30 -44 25 -7 -4 31 -2 31 44 0 32 -22 44 -24 88 -19 129 15 163 34 228 127 57
79 61 87 50 87 -8 0 -32 -28 -119 -137 -8 -10 -17 -12 -27 -6 -13 7 0 27 69
106 79 91 96 117 78 117 -5 0 -41 -28 -81 -63z m-142 -114 c58 -40 63 -56 23
-71 -55 -21 -125 -19 -164 6 -20 12 -41 22 -47 22 -10 0 -11 25 -1 35 3 3 36
7 73 9 36 1 69 6 73 9 10 10 16 9 43 -10z"/>
<path d="M378 1404 c-4 -3 4 -18 17 -32 13 -14 28 -23 32 -19 4 4 -4 19 -18
33 -14 13 -28 22 -31 18z"/>
<path d="M2548 1385 c-20 -26 -22 -35 -10 -35 5 0 18 14 30 30 15 19 18 30 10
30 -7 0 -21 -11 -30 -25z"/>
<path d="M1390 1296 c0 -8 10 -27 23 -42 21 -25 30 -27 118 -31 82 -4 98 -2
127 16 34 22 43 55 16 65 -8 3 -22 0 -30 -8 -22 -22 -51 -28 -74 -16 -15 8
-30 8 -56 -2 -32 -11 -39 -10 -74 10 -46 26 -50 27 -50 8z"/>
<path d="M610 1218 c0 -55 -52 -261 -72 -285 -8 -10 -6 -17 8 -28 10 -8 22
-15 26 -15 3 0 29 -18 58 -41 28 -22 54 -39 56 -36 10 10 34 195 34 264 0 68
-2 74 -38 120 -21 26 -46 54 -55 62 -16 12 -17 9 -17 -41z m68 -195 c-4 -153
-13 -169 -72 -120 -33 28 -37 36 -28 53 18 30 54 173 47 184 -3 6 -1 10 4 10
6 0 11 10 11 23 l0 22 21 -25 c18 -23 19 -37 17 -147z"/>
<path d="M2326 1219 l-27 -40 17 -67 c9 -37 27 -87 39 -112 31 -60 92 -130
115 -130 21 0 62 46 90 101 27 52 26 56 -20 64 -80 14 -170 112 -170 187 0 42
-15 41 -44 -3z m90 -152 c15 -12 50 -34 78 -49 28 -15 45 -27 39 -28 -7 0 -12
-3 -11 -7 4 -17 -26 -63 -45 -69 -40 -13 -117 111 -124 200 l-3 51 19 -38 c11
-21 32 -48 47 -60z"/>
<path d="M1640 1198 c-14 -5 -67 -8 -117 -6 -51 2 -93 1 -93 -3 0 -3 17 -38
39 -77 21 -39 47 -89 57 -111 22 -47 29 -50 45 -19 18 34 99 222 96 224 -1 1
-13 -3 -27 -8z m-42 -52 c8 -8 -31 -106 -43 -106 -5 0 -15 8 -20 18 -33 61
-37 72 -32 85 4 10 18 13 48 11 23 -2 44 -6 47 -8z"/>
<path d="M2154 1048 c-59 -161 -60 -170 -21 -215 35 -40 158 -123 182 -123 9
0 36 32 61 70 l45 71 -30 34 c-48 55 -85 125 -102 195 -27 106 -59 89 -59 -32
0 -64 -15 -83 -31 -41 -10 27 -8 84 7 131 3 12 2 22 -2 22 -5 0 -28 -51 -50
-112z m156 -95 c6 -7 8 -13 5 -13 -7 0 45 -71 59 -82 11 -8 -38 -94 -59 -102
-18 -7 -43 6 -105 54 -73 56 -73 55 -65 109 7 51 26 71 51 50 16 -13 49 2 59
28 6 16 8 16 26 -7 10 -14 24 -31 29 -37z"/>
<path d="M2444 1138 c-7 -12 12 -29 59 -54 35 -19 34 -14 -7 30 -38 40 -42 41
-52 24z"/>
<path d="M506 1093 c-4 -26 -3 -68 1 -93 l8 -45 21 72 21 72 -22 21 -23 22 -6
-49z"/>
<path d="M747 1002 c-4 -59 -9 -126 -13 -149 -6 -41 -5 -43 46 -92 29 -28 60
-51 69 -50 19 1 113 113 123 146 6 22 -27 162 -52 215 -13 27 -46 43 -56 27
-3 -6 -4 -36 -2 -67 5 -89 -13 -86 -46 9 -10 29 -25 50 -40 57 l-23 10 -6
-106z m104 -62 c5 0 18 9 29 20 20 20 46 28 35 11 -3 -5 -1 -12 4 -16 6 -3 13
-26 17 -50 6 -41 3 -49 -32 -95 -46 -61 -70 -64 -113 -15 -35 40 -35 40 -20
121 7 32 12 67 11 76 0 12 9 7 30 -17 16 -19 34 -35 39 -35z"/>
</g>
</svg>
