<?xml version="1.0" standalone="no"?>
<!DOCTYPE svg PUBLIC "-//W3C//DTD SVG 20010904//EN"
 "http://www.w3.org/TR/2001/REC-SVG-20010904/DTD/svg10.dtd">
<svg version="1.0" xmlns="http://www.w3.org/2000/svg"
 width="313.000000pt" height="271.000000pt" viewBox="0 0 313.000000 271.000000"
 preserveAspectRatio="xMidYMid meet">

<g transform="translate(0.000000,271.000000) scale(0.100000,-0.100000)"
fill="#000000" stroke="none">
<path d="M0 1355 l0 -1355 1565 0 1565 0 0 1355 0 1355 -1565 0 -1565 0 0
-1355z m1753 1229 c253 -57 427 -274 427 -533 0 -125 -35 -230 -115 -341 -18
-25 -35 -58 -39 -75 -4 -16 -18 -42 -32 -56 l-24 -26 83 -61 c97 -71 109 -83
140 -143 24 -44 115 -117 148 -118 10 -1 41 32 72 76 l56 77 -34 23 c-42 29
-75 89 -75 138 0 70 57 146 120 160 34 7 35 10 15 45 -20 35 -18 109 4 150 50
94 180 114 256 40 37 -36 58 -101 49 -149 -6 -27 -4 -31 14 -31 40 0 90 -32
113 -74 28 -49 31 -65 18 -85 -9 -14 -10 -13 -5 2 3 9 0 17 -5 17 -6 0 -9 9
-6 19 3 12 -1 22 -10 25 -8 3 -12 10 -8 16 7 12 -48 47 -87 56 -23 5 -36 -1
-68 -30 -22 -19 -51 -38 -66 -42 -22 -6 -25 -10 -19 -33 3 -14 9 -49 12 -78 3
-28 11 -54 18 -57 7 -2 27 11 45 30 44 47 64 42 70 -20 l5 -48 53 42 c30 24
52 50 52 61 0 10 5 19 11 19 5 0 7 -4 4 -10 -3 -5 -1 -10 6 -10 6 0 18 -8 26
-17 14 -17 14 -17 8 2 -4 14 -3 17 4 10 13 -13 3 -52 -15 -59 -12 -4 -12 -2
-4 14 28 53 -43 5 -162 -109 -26 -24 -51 -42 -54 -38 -4 4 2 28 14 55 39 89
35 155 -6 81 -9 -17 -33 -50 -53 -72 l-36 -40 -83 -3 c-99 -3 -114 -13 -100
-64 5 -19 13 -51 17 -70 11 -43 39 -49 35 -7 l-3 28 41 -27 c36 -24 45 -26
102 -20 104 12 137 25 189 73 27 25 49 51 49 58 0 7 7 16 16 19 8 3 13 10 9
15 -6 11 33 36 43 27 3 -3 0 -6 -6 -6 -7 0 -12 -7 -12 -15 0 -8 -3 -15 -8 -15
-4 0 -13 -14 -20 -30 -8 -17 -34 -50 -58 -75 -47 -47 -113 -74 -183 -76 -20
-1 -47 -4 -60 -8 -22 -6 -21 -8 28 -54 62 -58 64 -77 16 -163 -34 -60 -83
-104 -118 -104 -8 0 -30 -24 -47 -52 -47 -77 -90 -119 -113 -112 -19 6 -20 2
-15 -77 4 -58 15 -110 37 -168 17 -46 28 -88 24 -94 -4 -6 -1 -7 7 -2 8 5 11
3 9 -4 -10 -28 -23 -12 -54 66 -40 100 -55 165 -55 242 l0 59 -52 33 c-29 18
-68 46 -85 63 -18 16 -34 28 -37 25 -10 -11 -58 -238 -75 -359 -34 -228 -55
-320 -73 -320 -11 0 -11 7 20 160 11 58 25 148 32 201 6 53 24 152 40 220 17
68 30 139 30 157 0 37 59 222 91 283 l20 40 -23 19 c-13 11 -25 19 -28 20 -3
0 -20 -60 -37 -134 -18 -74 -47 -174 -64 -222 -17 -49 -55 -190 -84 -314 -62
-261 -110 -449 -118 -457 -23 -22 -20 19 8 122 17 66 51 206 75 310 23 105 60
246 82 315 21 69 55 184 74 255 l34 130 -26 23 c-31 27 -41 22 -76 -46 -14
-26 -73 -137 -131 -247 -58 -110 -120 -237 -136 -283 l-31 -83 0 -237 c0 -236
-4 -282 -22 -282 -5 0 -8 108 -6 278 l3 277 44 100 c23 55 51 114 61 130 9 17
41 75 70 130 130 247 161 303 180 320 11 10 20 22 20 26 0 5 -42 40 -92 77
-51 38 -116 95 -145 128 l-52 59 6 -50 c7 -70 -34 -237 -92 -364 -25 -56 -45
-103 -45 -106 0 -3 -21 -50 -46 -105 -42 -90 -64 -120 -64 -89 0 6 -26 59 -57
118 -163 303 -220 462 -189 534 7 18 24 42 36 55 14 15 19 29 15 40 -6 15 -8
15 -21 -3 -8 -11 -25 -31 -37 -45 -12 -14 -45 -59 -75 -100 -29 -41 -81 -103
-114 -137 l-61 -62 24 -34 c13 -19 45 -64 71 -99 67 -91 216 -393 234 -476 11
-46 17 -150 21 -334 5 -239 4 -268 -10 -268 -12 0 -15 7 -10 33 9 58 -16 509
-32 572 -23 90 -158 357 -237 467 -39 54 -74 100 -79 104 -5 3 -25 -7 -44 -22
-38 -29 -44 -56 -20 -92 43 -61 153 -408 230 -725 19 -78 45 -182 59 -230 21
-76 22 -88 9 -85 -11 2 -25 37 -46 118 -161 634 -237 866 -298 923 -30 27 -49
31 -56 11 -2 -5 7 -14 19 -19 51 -23 77 -100 144 -415 41 -196 106 -582 99
-589 -13 -13 -25 22 -40 119 -25 160 -101 550 -109 558 -2 1 -29 -29 -60 -67
-62 -75 -78 -86 -106 -71 -10 6 -21 10 -23 10 -3 0 -10 -43 -17 -95 -15 -119
-52 -273 -65 -271 -12 1 -11 12 9 101 9 39 21 118 28 176 l12 106 -34 42 c-26
34 -37 41 -56 37 -16 -4 -35 4 -71 33 -27 21 -63 45 -79 54 -16 8 -37 23 -46
33 -23 26 -41 137 -34 204 l6 55 -71 2 c-145 5 -233 54 -285 160 -12 23 -24
39 -28 36 -4 -4 -4 1 0 10 5 14 15 6 49 -41 75 -103 114 -125 242 -138 52 -6
67 -3 96 15 42 26 50 26 43 3 -7 -20 38 -70 48 -54 3 5 8 45 12 88 8 101 3
106 -107 107 l-80 1 -37 41 c-20 23 -45 56 -54 73 -9 18 -22 32 -29 32 -15 0
-5 -55 22 -117 11 -25 17 -48 15 -50 -6 -7 -180 148 -184 163 -2 7 -12 9 -24
6 -15 -3 -19 -1 -14 7 4 6 12 9 17 6 5 -4 9 -1 9 4 0 6 -4 11 -10 11 -16 0
-12 42 7 62 10 11 12 18 4 18 -8 0 -7 8 3 28 15 28 56 68 56 54 0 -4 4 -1 9 6
4 8 27 16 50 19 38 5 42 8 36 27 -28 83 -10 156 49 201 98 75 239 19 262 -103
7 -38 -9 -104 -31 -126 -21 -20 -19 -23 16 -30 42 -8 104 -72 118 -121 16 -59
-2 -111 -56 -163 -48 -47 -48 -59 6 -87 14 -7 44 -36 66 -64 22 -29 51 -65 63
-81 29 -37 51 -38 83 -4 13 14 48 37 77 51 37 17 86 59 169 143 64 66 121 126
126 135 6 12 2 21 -16 35 -31 24 -44 59 -50 133 -3 31 -17 81 -31 110 -72 148
-74 331 -7 481 27 60 93 143 153 193 75 61 143 92 263 117 46 9 131 5 198 -10z
m-1643 -1084 c0 -13 -1 -13 -10 0 -5 8 -10 22 -10 30 0 13 1 13 10 0 5 -8 10
-22 10 -30z m94 -99 c61 -73 78 -102 59 -100 -10 0 -96 106 -112 137 -12 23
-13 23 -39 6 -24 -16 -26 -16 -13 -1 9 12 10 17 2 17 -7 0 -9 5 -6 10 16 25
47 5 109 -69z m2749 67 c-4 -7 -8 -16 -8 -20 0 -17 -117 -148 -126 -142 -11 7
-14 3 76 107 55 63 76 83 58 55z m41 -25 c4 -11 1 -11 -14 -3 -24 13 -25 17
-5 17 8 0 16 -6 19 -14z"/>
<path d="M1480 2547 c-130 -44 -224 -120 -293 -234 -54 -90 -62 -124 -62 -263
0 -109 3 -133 24 -182 13 -32 26 -58 30 -58 3 0 21 14 40 31 l33 31 -38 39
c-35 36 -37 40 -24 63 18 35 57 69 115 103 43 25 51 36 65 80 8 28 38 86 67
129 28 44 54 93 58 111 7 37 75 117 116 138 33 18 103 19 148 4 36 -13 40 -29
11 -47 -28 -17 -25 -43 20 -183 22 -68 40 -139 40 -157 0 -26 6 -35 28 -44 15
-7 45 -27 67 -44 22 -18 71 -44 108 -59 60 -24 67 -30 61 -49 -12 -40 -34 -75
-55 -90 -21 -14 -21 -16 -5 -40 9 -14 16 -34 16 -46 0 -37 19 -20 49 43 41 88
52 136 52 230 -1 235 -151 434 -380 501 -81 24 -211 21 -291 -7z"/>
<path d="M1635 2516 c-41 -18 -100 -85 -115 -132 -16 -47 -38 -88 -79 -144
-31 -43 -57 -107 -48 -117 4 -3 20 0 37 6 27 9 31 8 28 -5 -2 -8 -32 -27 -68
-41 -75 -30 -145 -75 -154 -99 -6 -15 1 -16 66 -12 43 4 91 14 118 27 54 25
176 29 238 7 74 -27 253 -58 291 -51 77 13 79 16 25 44 -28 14 -64 36 -80 49
-16 13 -53 38 -83 55 -61 36 -81 64 -37 53 35 -9 34 3 -14 153 -43 132 -46
151 -29 183 6 11 9 21 7 23 -13 11 -78 12 -103 1z"/>
<path d="M1550 1979 c46 -18 60 -47 60 -126 0 -59 3 -73 16 -73 13 0 14 10 9
68 -4 41 -3 78 5 96 14 38 2 46 -65 45 -43 0 -47 -2 -25 -10z"/>
<path d="M368 1963 c-30 -19 -68 -81 -68 -112 0 -68 74 -141 142 -141 71 0
138 65 138 133 0 41 -24 91 -55 115 -34 27 -117 30 -157 5z"/>
<path d="M1420 1970 c-8 -5 -11 -12 -7 -16 4 -4 15 0 24 9 18 18 8 23 -17 7z"/>
<path d="M1681 1956 c-17 -22 -23 -58 -15 -109 6 -46 8 -49 17 -29 5 12 13 22
18 22 4 0 30 -25 58 -55 47 -53 51 -54 61 -35 7 12 10 55 8 102 l-3 82 -68 16
c-48 12 -70 13 -76 6z m93 -29 c26 -19 18 -61 -13 -65 -15 -2 -30 3 -37 12 -6
9 -17 15 -24 14 -29 -7 -19 23 12 37 41 18 40 18 62 2z"/>
<path d="M1451 1934 c-29 -24 -31 -30 -30 -87 1 -34 4 -75 8 -90 l6 -28 50 51
c52 53 75 62 75 30 0 -11 5 -20 10 -20 6 0 10 28 10 63 0 53 -4 67 -23 85 -31
29 -69 28 -106 -4z m83 -20 c22 -21 20 -41 -5 -54 -16 -9 -24 -8 -37 3 -12 11
-22 13 -35 6 -28 -16 -21 16 9 40 32 25 47 26 68 5z"/>
<path d="M2573 1940 c-72 -43 -87 -142 -32 -205 82 -93 225 -49 237 74 3 39 0
57 -17 84 -39 64 -126 85 -188 47z"/>
<path d="M1349 1923 c-8 -14 -44 -50 -81 -80 -51 -40 -68 -60 -68 -78 0 -14 3
-25 6 -25 3 0 30 21 60 46 53 46 114 126 114 151 0 22 -16 15 -31 -14z"/>
<path d="M2000 1937 c-25 -5 -47 -12 -49 -14 -3 -2 6 -14 19 -28 l24 -25 33
32 c31 30 42 49 26 47 -5 -1 -28 -6 -53 -12z"/>
<path d="M1252 1914 c27 -28 41 -26 58 7 10 18 7 19 -37 19 l-48 0 27 -26z"/>
<path d="M1870 1911 c0 -11 34 -54 85 -109 22 -24 45 -53 51 -64 14 -26 22 -8
16 34 -8 55 -152 187 -152 139z"/>
<path d="M1340 1817 c-19 -22 -56 -56 -82 -76 -44 -32 -48 -39 -48 -77 0 -30
7 -48 26 -69 31 -33 51 -22 33 18 -17 37 -4 73 47 127 25 26 49 63 54 81 5 18
9 33 7 34 -1 1 -18 -16 -37 -38z"/>
<path d="M1860 1817 c0 -35 6 -49 30 -72 40 -39 63 -89 55 -125 -8 -39 9 -46
34 -14 39 49 21 106 -61 194 l-58 61 0 -44z"/>
<path d="M1700 1777 c0 -8 11 -19 25 -25 29 -14 33 -2 7 21 -22 20 -32 21 -32
4z"/>
<path d="M1380 1772 c0 -4 -20 -29 -45 -56 -43 -47 -55 -78 -36 -90 16 -11
101 96 101 126 0 16 -4 28 -10 28 -5 0 -10 -3 -10 -8z"/>
<path d="M1480 1735 c-24 -25 -41 -45 -36 -45 11 0 96 73 96 82 0 17 -18 6
-60 -37z"/>
<path d="M1565 1740 c-29 -12 -111 -87 -104 -94 10 -11 144 65 144 82 0 19
-14 23 -40 12z"/>
<path d="M1640 1729 c0 -22 33 -39 114 -61 89 -24 67 18 -30 58 -72 29 -84 30
-84 3z"/>
<path d="M1840 1730 c0 -14 62 -100 73 -100 5 0 6 7 3 16 -3 9 -6 19 -6 24 0
12 -50 70 -61 70 -5 0 -9 -4 -9 -10z"/>
<path d="M225 1711 c-27 -17 -82 -73 -77 -78 1 -2 1 -6 1 -10 -1 -5 -1 -16 0
-25 1 -10 -3 -18 -9 -18 -7 0 -5 -6 4 -15 9 -9 19 -21 23 -28 9 -14 89 -77 97
-77 3 0 6 20 6 45 0 65 23 71 71 17 l37 -42 21 26 c30 38 30 130 -1 169 -42
53 -120 69 -173 36z"/>
<path d="M478 1672 c-25 -15 -28 -23 -28 -69 0 -28 -5 -64 -10 -79 -14 -37 -5
-59 34 -84 43 -26 108 -26 151 0 78 48 78 182 0 230 -40 25 -110 26 -147 2z"/>
<path d="M1590 1668 l-25 -11 24 -5 c12 -2 35 -1 49 3 20 5 23 8 11 16 -18 11
-28 11 -59 -3z"/>
<path d="M2452 1660 c-57 -35 -77 -111 -45 -177 48 -101 195 -95 247 10 56
116 -89 236 -202 167z"/>
<path d="M1684 1637 c-3 -9 -1 -31 4 -49 6 -18 16 -63 22 -100 15 -83 28 -103
62 -95 40 10 43 54 7 84 -18 15 -35 45 -46 81 -9 31 -23 66 -30 76 -11 17 -13
18 -19 3z"/>
<path d="M1520 1614 c-6 -15 -16 -51 -22 -79 -5 -27 -21 -69 -34 -91 -13 -23
-20 -44 -17 -48 15 -14 40 -4 56 24 24 39 52 199 38 213 -7 7 -14 1 -21 -19z"/>
<path d="M1800 1622 c0 -5 7 -16 16 -23 14 -12 16 -11 13 5 -4 20 -29 35 -29
18z"/>
<path d="M1401 1594 c-22 -27 -29 -74 -11 -74 13 0 37 38 45 73 9 35 -7 35
-34 1z"/>
<path d="M1566 1528 c-10 -50 -25 -104 -34 -120 -22 -37 -5 -57 35 -42 l28 10
1 122 c1 67 -2 122 -6 122 -4 0 -15 -41 -24 -92z"/>
<path d="M1627 1613 c-2 -5 -4 -28 -3 -53 1 -25 3 -75 4 -112 2 -54 6 -69 21
-77 13 -7 23 -6 36 3 19 14 20 5 -27 204 -10 39 -21 52 -31 35z"/>
<path d="M1754 1600 c4 -14 9 -37 12 -52 4 -15 15 -35 26 -45 17 -15 21 -15
28 -3 15 24 12 32 -31 80 -34 38 -40 41 -35 20z"/>
<path d="M1462 1572 c-6 -21 -24 -50 -40 -65 -21 -21 -28 -35 -24 -53 10 -52
55 7 77 101 14 62 4 75 -13 17z"/>
<path d="M2670 1468 c0 -6 -10 -22 -22 -35 -16 -17 -18 -23 -6 -23 20 0 62 46
53 59 -8 15 -25 14 -25 -1z"/>
<path d="M396 1462 c-7 -12 39 -55 53 -51 6 2 -2 16 -18 32 -16 15 -32 23 -35
19z"/>
<path d="M1450 1351 c0 -11 11 -33 24 -48 24 -28 26 -28 134 -28 94 0 113 3
131 19 25 23 28 66 6 66 -9 0 -30 -7 -47 -16 -24 -13 -35 -13 -58 -4 -21 8
-34 9 -48 1 -31 -16 -63 -13 -97 9 -38 25 -45 25 -45 1z"/>
<path d="M640 1311 c0 -51 -54 -270 -84 -342 -5 -12 5 -25 41 -47 26 -17 63
-44 81 -59 42 -34 47 -28 61 91 17 145 17 241 1 262 -76 97 -100 120 -100 95z"/>
<path d="M2426 1274 l-29 -46 19 -80 c18 -81 60 -160 117 -220 31 -33 46 -35
80 -8 27 21 90 137 82 150 -2 4 -21 10 -42 13 -50 8 -127 63 -152 108 -12 20
-24 58 -27 83 -4 25 -9 46 -13 46 -3 0 -19 -21 -35 -46z"/>
<path d="M1695 1248 c-22 -6 -77 -7 -122 -4 -58 4 -83 3 -83 -5 0 -16 123
-239 132 -239 4 0 16 17 27 38 22 43 92 215 88 217 -1 1 -20 -2 -42 -7z"/>
<path d="M2274 1173 c-35 -84 -72 -190 -78 -230 -7 -38 -5 -44 30 -83 32 -35
174 -130 195 -130 5 0 78 104 103 148 5 8 -6 26 -27 49 -47 48 -81 113 -106
202 -11 41 -22 75 -24 77 -2 2 -12 -2 -22 -10 -16 -11 -20 -30 -23 -90 -2 -42
-8 -76 -12 -76 -15 0 -22 86 -11 126 13 48 14 54 1 54 -5 0 -17 -17 -26 -37z"/>
<path d="M2557 1193 c-17 -16 -3 -35 46 -59 l52 -27 -40 46 c-42 47 -47 51
-58 40z"/>
<path d="M527 1168 c-8 -29 -7 -104 2 -143 7 -28 9 -25 31 43 l23 74 -25 25
-25 25 -6 -24z"/>
<path d="M780 1098 c0 -33 -5 -101 -12 -149 -14 -107 -8 -123 68 -181 28 -21
53 -38 55 -38 12 0 119 140 124 162 7 29 -18 141 -48 211 -17 42 -23 48 -46
45 -25 -3 -26 -4 -23 -70 3 -77 -11 -90 -28 -26 -15 53 -34 82 -65 96 l-25 12
0 -62z"/>
</g>
</svg>
